<svg width="126" height="50" viewBox="0 0 126 50" fill="#0C29D0" xmlns="http://www.w3.org/2000/svg">
<path d="M18.1102 13.9108C7.54593 13.9108 0 21.7848 0 31.9554C0 42.126 7.54593 50 18.1102 50C28.6089 50 36.1549 42.126 36.1549 31.9554C36.1549 21.7848 28.6089 13.9108 18.1102 13.9108ZM26.6404 31.9554C26.6404 37.5984 23.2283 41.9948 18.1102 41.9948C12.9921 41.9948 9.51444 37.5984 9.51444 31.9554C9.51444 26.3123 12.9921 21.916 18.1102 21.916C23.2283 21.916 26.6404 26.3123 26.6404 31.9554Z" fill="#0C29D0"/>
<path d="M50.8653 0H41.5477V49.2126H50.8653V0Z" fill="#0C29D0"/>
<path d="M67.9436 49.2126V14.6982H58.626V49.2126H67.9436ZM67.9436 9.90814V1.9685H58.626V9.90814H67.9436Z" fill="#0C29D0"/>
<path d="M99.5889 18.4383C96.3736 15.4199 92.2398 13.9108 87.6466 13.9108C81.3474 13.9108 75.3106 17.4541 75.3106 24.4751C75.3106 30.5118 79.8382 32.874 83.9721 34.6457C87.3841 36.1549 90.5337 37.2047 90.5337 39.6325C90.5337 41.7323 88.0403 42.6509 86.1374 42.6509C82.791 42.6509 80.6256 41.1417 78.0009 38.5827L72.686 44.0945C76.4918 47.9003 81.2162 50 86.5967 50C93.2897 50 99.8513 46.5223 99.8513 38.9108C99.8513 32.3491 94.2083 30.1181 89.7463 28.2808C86.8592 27.0997 84.3001 25.9843 84.3001 23.8189C84.3001 22.1785 85.875 21.1942 87.6466 21.1942C90.2713 21.1942 92.6991 22.5066 94.4708 24.0814L99.5889 18.4383Z" fill="#0C29D0"/>
<path d="M124.487 22.4409V14.6982H115.694V7.08661H107.82L106.377 14.6982H102.243V22.4409H106.377V36.811C106.377 38.8451 106.508 40.8793 107.033 42.5853C108.28 47.0472 111.888 50 117.269 50C119.959 50 123.24 49.2782 125.471 47.9659L122.584 41.0761C121.403 41.6667 120.287 42.0604 118.844 42.0604C116.875 42.0604 116.088 40.8136 115.825 38.7795C115.694 37.7953 115.694 36.8766 115.694 35.8268V22.4409H124.487Z" fill="#0C29D0"/>
</svg>
